<svg width="400" height="48" viewBox="0 0 400 48" fill="none" xmlns="http://www.w3.org/2000/svg">
<rect x="0.5" y="0.5" width="399" height="47" rx="3.5" fill="white"/>
<rect x="0.5" y="0.5" width="399" height="47" rx="3.5" stroke="#BFCCD5"/>
<path fill-rule="evenodd" clip-rule="evenodd" d="M124.685 15.8314C125.56 14.8175 126.149 13.4052 125.988 12C124.727 12.048 123.202 12.8054 122.298 13.8182C121.486 14.717 120.778 16.1531 120.968 17.5307C122.374 17.6351 123.81 16.8466 124.685 15.8314ZM127.839 24.75C127.874 28.3824 131.163 29.5907 131.2 29.6063C131.173 29.6915 130.674 31.3279 129.467 33.0199C128.422 34.4815 127.339 35.9372 125.631 35.9684C123.954 35.9984 123.414 35.0156 121.496 35.0156C119.579 35.0156 118.979 35.937 117.392 35.9982C115.744 36.057 114.488 34.4169 113.436 32.9602C111.284 29.9806 109.639 24.5401 111.848 20.8682C112.945 19.0454 114.905 17.8893 117.033 17.8605C118.65 17.8305 120.178 18.9035 121.167 18.9035C122.156 18.9035 124.013 17.6135 125.964 17.8031C126.78 17.8355 129.074 18.1186 130.546 20.1838C130.427 20.2546 127.809 21.714 127.839 24.75Z" fill="black"/>
<path d="M146.784 30.24C145.637 30.24 144.669 29.9867 143.88 29.48C143.091 28.968 142.493 28.2613 142.088 27.36C141.683 26.4587 141.48 25.4187 141.48 24.24C141.48 23.0613 141.683 22.0213 142.088 21.12C142.493 20.2187 143.091 19.5147 143.88 19.008C144.669 18.496 145.637 18.24 146.784 18.24C148.123 18.24 149.216 18.584 150.064 19.272C150.912 19.9547 151.493 20.872 151.808 22.024L150.608 22.336C150.363 21.424 149.923 20.7013 149.288 20.168C148.653 19.6347 147.819 19.368 146.784 19.368C145.883 19.368 145.133 19.5733 144.536 19.984C143.939 20.3947 143.488 20.968 143.184 21.704C142.885 22.4347 142.731 23.28 142.72 24.24C142.715 25.2 142.861 26.0453 143.16 26.776C143.464 27.5067 143.917 28.08 144.52 28.496C145.128 28.9067 145.883 29.112 146.784 29.112C147.819 29.112 148.653 28.8453 149.288 28.312C149.923 27.7733 150.363 27.0507 150.608 26.144L151.808 26.456C151.493 27.608 150.912 28.528 150.064 29.216C149.216 29.8987 148.123 30.24 146.784 30.24ZM157.181 30.24C156.322 30.24 155.589 30.0453 154.981 29.656C154.373 29.2667 153.906 28.728 153.581 28.04C153.256 27.352 153.093 26.5627 153.093 25.672C153.093 24.7653 153.258 23.9707 153.589 23.288C153.92 22.6053 154.389 22.0747 154.997 21.696C155.61 21.312 156.338 21.12 157.181 21.12C158.045 21.12 158.781 21.3147 159.389 21.704C160.002 22.088 160.469 22.624 160.789 23.312C161.114 23.9947 161.277 24.7813 161.277 25.672C161.277 26.5787 161.114 27.376 160.789 28.064C160.464 28.7467 159.994 29.28 159.381 29.664C158.768 30.048 158.034 30.24 157.181 30.24ZM157.181 29.112C158.141 29.112 158.856 28.7947 159.325 28.16C159.794 27.52 160.029 26.6907 160.029 25.672C160.029 24.6267 159.792 23.7947 159.317 23.176C158.848 22.5573 158.136 22.248 157.181 22.248C156.536 22.248 156.002 22.3947 155.581 22.688C155.165 22.976 154.853 23.3787 154.645 23.896C154.442 24.408 154.341 25 154.341 25.672C154.341 26.712 154.581 27.5467 155.061 28.176C155.541 28.8 156.248 29.112 157.181 29.112ZM169.282 30V25.592C169.282 25.112 169.237 24.672 169.146 24.272C169.055 23.8667 168.909 23.5147 168.706 23.216C168.509 22.912 168.25 22.6773 167.93 22.512C167.615 22.3467 167.231 22.264 166.778 22.264C166.362 22.264 165.994 22.336 165.674 22.48C165.359 22.624 165.093 22.832 164.874 23.104C164.661 23.3707 164.498 23.696 164.386 24.08C164.274 24.464 164.218 24.9013 164.218 25.392L163.386 25.208C163.386 24.3227 163.541 23.5787 163.85 22.976C164.159 22.3733 164.586 21.9173 165.13 21.608C165.674 21.2987 166.298 21.144 167.002 21.144C167.519 21.144 167.97 21.224 168.354 21.384C168.743 21.544 169.071 21.76 169.338 22.032C169.61 22.304 169.829 22.616 169.994 22.968C170.159 23.3147 170.279 23.6853 170.354 24.08C170.429 24.4693 170.466 24.8587 170.466 25.248V30H169.282ZM163.034 30V21.36H164.098V23.488H164.218V30H163.034ZM177.246 30C176.761 30.1013 176.281 30.1413 175.806 30.12C175.337 30.0987 174.915 29.9973 174.542 29.816C174.174 29.6347 173.894 29.352 173.702 28.968C173.547 28.648 173.462 28.3253 173.446 28C173.435 27.6693 173.43 27.2933 173.43 26.872V18.96H174.598V26.824C174.598 27.1867 174.601 27.4907 174.606 27.736C174.617 27.976 174.673 28.1893 174.774 28.376C174.966 28.7333 175.27 28.9467 175.686 29.016C176.107 29.0853 176.627 29.0693 177.246 28.968V30ZM171.582 22.368V21.36H177.246V22.368H171.582ZM179.108 19.72V18.4H180.284V19.72H179.108ZM179.108 30V21.36H180.284V30H179.108ZM188.923 30V25.592C188.923 25.112 188.877 24.672 188.787 24.272C188.696 23.8667 188.549 23.5147 188.347 23.216C188.149 22.912 187.891 22.6773 187.571 22.512C187.256 22.3467 186.872 22.264 186.419 22.264C186.003 22.264 185.635 22.336 185.315 22.48C185 22.624 184.733 22.832 184.515 23.104C184.301 23.3707 184.139 23.696 184.027 24.08C183.915 24.464 183.859 24.9013 183.859 25.392L183.027 25.208C183.027 24.3227 183.181 23.5787 183.491 22.976C183.8 22.3733 184.227 21.9173 184.771 21.608C185.315 21.2987 185.939 21.144 186.643 21.144C187.16 21.144 187.611 21.224 187.995 21.384C188.384 21.544 188.712 21.76 188.979 22.032C189.251 22.304 189.469 22.616 189.635 22.968C189.8 23.3147 189.92 23.6853 189.995 24.08C190.069 24.4693 190.107 24.8587 190.107 25.248V30H188.923ZM182.675 30V21.36H183.739V23.488H183.859V30H182.675ZM195.487 30.216C194.969 30.216 194.516 30.136 194.127 29.976C193.743 29.816 193.415 29.6 193.143 29.328C192.876 29.056 192.66 28.7467 192.495 28.4C192.329 28.048 192.209 27.6773 192.135 27.288C192.06 26.8933 192.023 26.5013 192.023 26.112V21.36H193.207V25.768C193.207 26.2427 193.252 26.6827 193.343 27.088C193.433 27.4933 193.577 27.848 193.775 28.152C193.977 28.4507 194.236 28.6827 194.551 28.848C194.871 29.0133 195.257 29.096 195.711 29.096C196.127 29.096 196.492 29.024 196.807 28.88C197.127 28.736 197.393 28.5307 197.607 28.264C197.825 27.992 197.991 27.664 198.103 27.28C198.215 26.8907 198.271 26.4533 198.271 25.968L199.102 26.152C199.102 27.0373 198.948 27.7813 198.639 28.384C198.329 28.9867 197.903 29.4427 197.359 29.752C196.815 30.0613 196.191 30.216 195.487 30.216ZM198.391 30V27.872H198.271V21.36H199.447V30H198.391ZM205.339 30.24C204.496 30.24 203.765 30.0533 203.147 29.68C202.533 29.3067 202.056 28.7813 201.715 28.104C201.373 27.4267 201.203 26.632 201.203 25.72C201.203 24.776 201.371 23.96 201.707 23.272C202.043 22.584 202.515 22.0533 203.123 21.68C203.736 21.3067 204.459 21.12 205.291 21.12C206.144 21.12 206.872 21.3173 207.475 21.712C208.077 22.1013 208.533 22.6613 208.843 23.392C209.152 24.1227 209.293 24.9947 209.267 26.008H208.067V25.592C208.045 24.472 207.803 23.6267 207.339 23.056C206.88 22.4853 206.208 22.2 205.323 22.2C204.395 22.2 203.683 22.5013 203.187 23.104C202.696 23.7067 202.451 24.5653 202.451 25.68C202.451 26.768 202.696 27.6133 203.187 28.216C203.683 28.8133 204.384 29.112 205.291 29.112C205.909 29.112 206.448 28.9707 206.907 28.688C207.371 28.4 207.736 27.9867 208.003 27.448L209.099 27.872C208.757 28.624 208.253 29.208 207.587 29.624C206.925 30.0347 206.176 30.24 205.339 30.24ZM202.035 26.008V25.024H208.635V26.008H202.035ZM216.085 30L213.445 21.352L214.621 21.36L216.669 28.072L218.725 21.36H219.797L221.853 28.072L223.917 21.36H225.085L222.445 30H221.421L219.261 23.12L217.109 30H216.085ZM226.686 19.72V18.4H227.862V19.72H226.686ZM226.686 30V21.36H227.862V30H226.686ZM234.965 30C234.479 30.1013 233.999 30.1413 233.525 30.12C233.055 30.0987 232.634 29.9973 232.261 29.816C231.893 29.6347 231.613 29.352 231.421 28.968C231.266 28.648 231.181 28.3253 231.165 28C231.154 27.6693 231.149 27.2933 231.149 26.872V18.96H232.317V26.824C232.317 27.1867 232.319 27.4907 232.325 27.736C232.335 27.976 232.391 28.1893 232.493 28.376C232.685 28.7333 232.989 28.9467 233.405 29.016C233.826 29.0853 234.346 29.0693 234.965 28.968V30ZM229.301 22.368V21.36H234.965V22.368H229.301ZM242.907 30V25.592C242.907 25.112 242.862 24.672 242.771 24.272C242.68 23.8667 242.534 23.5147 242.331 23.216C242.134 22.912 241.875 22.6773 241.555 22.512C241.24 22.3467 240.856 22.264 240.403 22.264C239.987 22.264 239.619 22.336 239.299 22.48C238.984 22.624 238.718 22.832 238.499 23.104C238.286 23.3707 238.123 23.696 238.011 24.08C237.899 24.464 237.843 24.9013 237.843 25.392L237.011 25.208C237.011 24.3227 237.166 23.5787 237.475 22.976C237.784 22.3733 238.211 21.9173 238.755 21.608C239.299 21.2987 239.923 21.144 240.627 21.144C241.144 21.144 241.595 21.224 241.979 21.384C242.368 21.544 242.696 21.76 242.963 22.032C243.235 22.304 243.454 22.616 243.619 22.968C243.784 23.3147 243.904 23.6853 243.979 24.08C244.054 24.4693 244.091 24.8587 244.091 25.248V30H242.907ZM236.659 30V18.48H237.723V24.984H237.843V30H236.659ZM248.57 30L252.538 18.48H254.098L258.066 30H256.842L253.074 19.136H253.538L249.794 30H248.57ZM250.338 27.208V26.104H256.29V27.208H250.338ZM263.391 30.24C262.596 30.24 261.924 30.04 261.375 29.64C260.825 29.2347 260.409 28.688 260.127 28C259.844 27.3067 259.703 26.5307 259.703 25.672C259.703 24.7973 259.844 24.0187 260.127 23.336C260.415 22.648 260.836 22.1067 261.391 21.712C261.945 21.3173 262.628 21.12 263.439 21.12C264.228 21.12 264.905 21.32 265.471 21.72C266.036 22.12 266.468 22.664 266.767 23.352C267.071 24.04 267.223 24.8133 267.223 25.672C267.223 26.536 267.071 27.312 266.767 28C266.463 28.688 266.025 29.2347 265.455 29.64C264.884 30.04 264.196 30.24 263.391 30.24ZM259.503 33.84V21.36H260.559V27.864H260.687V33.84H259.503ZM263.271 29.144C263.873 29.144 264.375 28.992 264.775 28.688C265.175 28.384 265.473 27.9707 265.671 27.448C265.873 26.92 265.975 26.328 265.975 25.672C265.975 25.0213 265.876 24.4347 265.679 23.912C265.481 23.3893 265.18 22.976 264.775 22.672C264.375 22.368 263.865 22.216 263.247 22.216C262.644 22.216 262.143 22.3627 261.743 22.656C261.348 22.9493 261.052 23.3573 260.855 23.88C260.657 24.3973 260.559 24.9947 260.559 25.672C260.559 26.3387 260.657 26.936 260.855 27.464C261.052 27.9867 261.351 28.3973 261.751 28.696C262.151 28.9947 262.657 29.144 263.271 29.144ZM272.859 30.24C272.065 30.24 271.393 30.04 270.843 29.64C270.294 29.2347 269.878 28.688 269.595 28C269.313 27.3067 269.171 26.5307 269.171 25.672C269.171 24.7973 269.313 24.0187 269.595 23.336C269.883 22.648 270.305 22.1067 270.859 21.712C271.414 21.3173 272.097 21.12 272.907 21.12C273.697 21.12 274.374 21.32 274.939 21.72C275.505 22.12 275.937 22.664 276.235 23.352C276.539 24.04 276.691 24.8133 276.691 25.672C276.691 26.536 276.539 27.312 276.235 28C275.931 28.688 275.494 29.2347 274.923 29.64C274.353 30.04 273.665 30.24 272.859 30.24ZM268.971 33.84V21.36H270.027V27.864H270.155V33.84H268.971ZM272.739 29.144C273.342 29.144 273.843 28.992 274.243 28.688C274.643 28.384 274.942 27.9707 275.139 27.448C275.342 26.92 275.443 26.328 275.443 25.672C275.443 25.0213 275.345 24.4347 275.147 23.912C274.95 23.3893 274.649 22.976 274.243 22.672C273.843 22.368 273.334 22.216 272.715 22.216C272.113 22.216 271.611 22.3627 271.211 22.656C270.817 22.9493 270.521 23.3573 270.323 23.88C270.126 24.3973 270.027 24.9947 270.027 25.672C270.027 26.3387 270.126 26.936 270.323 27.464C270.521 27.9867 270.819 28.3973 271.219 28.696C271.619 28.9947 272.126 29.144 272.739 29.144ZM278.608 30V18.24H279.784V30H278.608ZM285.839 30.24C284.996 30.24 284.265 30.0533 283.647 29.68C283.033 29.3067 282.556 28.7813 282.215 28.104C281.873 27.4267 281.703 26.632 281.703 25.72C281.703 24.776 281.871 23.96 282.207 23.272C282.543 22.584 283.015 22.0533 283.623 21.68C284.236 21.3067 284.959 21.12 285.791 21.12C286.644 21.12 287.372 21.3173 287.975 21.712C288.577 22.1013 289.033 22.6613 289.343 23.392C289.652 24.1227 289.793 24.9947 289.767 26.008H288.567V25.592C288.545 24.472 288.303 23.6267 287.839 23.056C287.38 22.4853 286.708 22.2 285.823 22.2C284.895 22.2 284.183 22.5013 283.687 23.104C283.196 23.7067 282.951 24.5653 282.951 25.68C282.951 26.768 283.196 27.6133 283.687 28.216C284.183 28.8133 284.884 29.112 285.791 29.112C286.409 29.112 286.948 28.9707 287.407 28.688C287.871 28.4 288.236 27.9867 288.503 27.448L289.599 27.872C289.257 28.624 288.753 29.208 288.087 29.624C287.425 30.0347 286.676 30.24 285.839 30.24ZM282.535 26.008V25.024H289.135V26.008H282.535Z" fill="#141A1F"/>
</svg>
