<svg width="400" height="48" viewBox="0 0 400 48" fill="none" xmlns="http://www.w3.org/2000/svg">
<rect x="0.5" y="0.5" width="399" height="47" rx="3.5" fill="white"/>
<rect x="0.5" y="0.5" width="399" height="47" rx="3.5" stroke="#BFCCD5"/>
<mask id="mask0_2983_2370" style="mask-type:luminance" maskUnits="userSpaceOnUse" x="104" y="12" width="25" height="24">
<path d="M128.221 21.8182H116.779V26.4545H123.365C122.751 29.4 120.184 31.0909 116.779 31.0909C112.76 31.0909 109.523 27.9273 109.523 24C109.523 20.0727 112.76 16.9091 116.779 16.9091C118.509 16.9091 120.072 17.5091 121.3 18.4909L124.872 15C122.695 13.1455 119.905 12 116.779 12C109.97 12 104.5 17.3455 104.5 24C104.5 30.6545 109.97 36 116.779 36C122.919 36 128.5 31.6364 128.5 24C128.5 23.2909 128.388 22.5273 128.221 21.8182Z" fill="white"/>
</mask>
<g mask="url(#mask0_2983_2370)">
<path d="M103.384 31.0909V16.9091L112.872 24L103.384 31.0909Z" fill="#FBBC05"/>
</g>
<mask id="mask1_2983_2370" style="mask-type:luminance" maskUnits="userSpaceOnUse" x="104" y="12" width="25" height="24">
<path d="M128.221 21.8182H116.779V26.4545H123.365C122.751 29.4 120.184 31.0909 116.779 31.0909C112.76 31.0909 109.523 27.9273 109.523 24C109.523 20.0727 112.76 16.9091 116.779 16.9091C118.509 16.9091 120.072 17.5091 121.3 18.4909L124.872 15C122.695 13.1455 119.905 12 116.779 12C109.97 12 104.5 17.3455 104.5 24C104.5 30.6545 109.97 36 116.779 36C122.919 36 128.5 31.6364 128.5 24C128.5 23.2909 128.388 22.5273 128.221 21.8182Z" fill="white"/>
</mask>
<g mask="url(#mask1_2983_2370)">
<path d="M103.384 16.9091L112.872 24L116.779 20.6727L130.174 18.5454V10.9091H103.384V16.9091Z" fill="#EA4335"/>
</g>
<mask id="mask2_2983_2370" style="mask-type:luminance" maskUnits="userSpaceOnUse" x="104" y="12" width="25" height="24">
<path d="M128.221 21.8182H116.779V26.4545H123.365C122.751 29.4 120.184 31.0909 116.779 31.0909C112.76 31.0909 109.523 27.9273 109.523 24C109.523 20.0727 112.76 16.9091 116.779 16.9091C118.509 16.9091 120.072 17.5091 121.3 18.4909L124.872 15C122.695 13.1455 119.905 12 116.779 12C109.97 12 104.5 17.3455 104.5 24C104.5 30.6545 109.97 36 116.779 36C122.919 36 128.5 31.6364 128.5 24C128.5 23.2909 128.388 22.5273 128.221 21.8182Z" fill="white"/>
</mask>
<g mask="url(#mask2_2983_2370)">
<path d="M103.384 31.0909L120.128 18.5454L124.537 19.0909L130.174 10.9091V37.0909H103.384V31.0909Z" fill="#34A853"/>
</g>
<mask id="mask3_2983_2370" style="mask-type:luminance" maskUnits="userSpaceOnUse" x="104" y="12" width="25" height="24">
<path d="M128.221 21.8182H116.779V26.4545H123.365C122.751 29.4 120.184 31.0909 116.779 31.0909C112.76 31.0909 109.523 27.9273 109.523 24C109.523 20.0727 112.76 16.9091 116.779 16.9091C118.509 16.9091 120.072 17.5091 121.3 18.4909L124.872 15C122.695 13.1455 119.905 12 116.779 12C109.97 12 104.5 17.3455 104.5 24C104.5 30.6545 109.97 36 116.779 36C122.919 36 128.5 31.6364 128.5 24C128.5 23.2909 128.388 22.5273 128.221 21.8182Z" fill="white"/>
</mask>
<g mask="url(#mask3_2983_2370)">
<path d="M130.175 37.0909L112.872 24L110.64 22.3636L130.175 16.9091V37.0909Z" fill="#4285F4"/>
</g>
<path d="M142.284 30.24C141.137 30.24 140.169 29.9867 139.38 29.48C138.591 28.968 137.993 28.2613 137.588 27.36C137.183 26.4587 136.98 25.4187 136.98 24.24C136.98 23.0613 137.183 22.0213 137.588 21.12C137.993 20.2187 138.591 19.5147 139.38 19.008C140.169 18.496 141.137 18.24 142.284 18.24C143.623 18.24 144.716 18.584 145.564 19.272C146.412 19.9547 146.993 20.872 147.308 22.024L146.108 22.336C145.863 21.424 145.423 20.7013 144.788 20.168C144.153 19.6347 143.319 19.368 142.284 19.368C141.383 19.368 140.633 19.5733 140.036 19.984C139.439 20.3947 138.988 20.968 138.684 21.704C138.385 22.4347 138.231 23.28 138.22 24.24C138.215 25.2 138.361 26.0453 138.66 26.776C138.964 27.5067 139.417 28.08 140.02 28.496C140.628 28.9067 141.383 29.112 142.284 29.112C143.319 29.112 144.153 28.8453 144.788 28.312C145.423 27.7733 145.863 27.0507 146.108 26.144L147.308 26.456C146.993 27.608 146.412 28.528 145.564 29.216C144.716 29.8987 143.623 30.24 142.284 30.24ZM152.681 30.24C151.822 30.24 151.089 30.0453 150.481 29.656C149.873 29.2667 149.406 28.728 149.081 28.04C148.756 27.352 148.593 26.5627 148.593 25.672C148.593 24.7653 148.758 23.9707 149.089 23.288C149.42 22.6053 149.889 22.0747 150.497 21.696C151.11 21.312 151.838 21.12 152.681 21.12C153.545 21.12 154.281 21.3147 154.889 21.704C155.502 22.088 155.969 22.624 156.289 23.312C156.614 23.9947 156.777 24.7813 156.777 25.672C156.777 26.5787 156.614 27.376 156.289 28.064C155.964 28.7467 155.494 29.28 154.881 29.664C154.268 30.048 153.534 30.24 152.681 30.24ZM152.681 29.112C153.641 29.112 154.356 28.7947 154.825 28.16C155.294 27.52 155.529 26.6907 155.529 25.672C155.529 24.6267 155.292 23.7947 154.817 23.176C154.348 22.5573 153.636 22.248 152.681 22.248C152.036 22.248 151.502 22.3947 151.081 22.688C150.665 22.976 150.353 23.3787 150.145 23.896C149.942 24.408 149.841 25 149.841 25.672C149.841 26.712 150.081 27.5467 150.561 28.176C151.041 28.8 151.748 29.112 152.681 29.112ZM164.782 30V25.592C164.782 25.112 164.737 24.672 164.646 24.272C164.555 23.8667 164.409 23.5147 164.206 23.216C164.009 22.912 163.75 22.6773 163.43 22.512C163.115 22.3467 162.731 22.264 162.278 22.264C161.862 22.264 161.494 22.336 161.174 22.48C160.859 22.624 160.593 22.832 160.374 23.104C160.161 23.3707 159.998 23.696 159.886 24.08C159.774 24.464 159.718 24.9013 159.718 25.392L158.886 25.208C158.886 24.3227 159.041 23.5787 159.35 22.976C159.659 22.3733 160.086 21.9173 160.63 21.608C161.174 21.2987 161.798 21.144 162.502 21.144C163.019 21.144 163.47 21.224 163.854 21.384C164.243 21.544 164.571 21.76 164.838 22.032C165.11 22.304 165.329 22.616 165.494 22.968C165.659 23.3147 165.779 23.6853 165.854 24.08C165.929 24.4693 165.966 24.8587 165.966 25.248V30H164.782ZM158.534 30V21.36H159.598V23.488H159.718V30H158.534ZM172.746 30C172.261 30.1013 171.781 30.1413 171.306 30.12C170.837 30.0987 170.415 29.9973 170.042 29.816C169.674 29.6347 169.394 29.352 169.202 28.968C169.047 28.648 168.962 28.3253 168.946 28C168.935 27.6693 168.93 27.2933 168.93 26.872V18.96H170.098V26.824C170.098 27.1867 170.101 27.4907 170.106 27.736C170.117 27.976 170.173 28.1893 170.274 28.376C170.466 28.7333 170.77 28.9467 171.186 29.016C171.607 29.0853 172.127 29.0693 172.746 28.968V30ZM167.082 22.368V21.36H172.746V22.368H167.082ZM174.608 19.72V18.4H175.784V19.72H174.608ZM174.608 30V21.36H175.784V30H174.608ZM184.423 30V25.592C184.423 25.112 184.377 24.672 184.287 24.272C184.196 23.8667 184.049 23.5147 183.847 23.216C183.649 22.912 183.391 22.6773 183.071 22.512C182.756 22.3467 182.372 22.264 181.919 22.264C181.503 22.264 181.135 22.336 180.815 22.48C180.5 22.624 180.233 22.832 180.015 23.104C179.801 23.3707 179.639 23.696 179.527 24.08C179.415 24.464 179.359 24.9013 179.359 25.392L178.527 25.208C178.527 24.3227 178.681 23.5787 178.991 22.976C179.3 22.3733 179.727 21.9173 180.271 21.608C180.815 21.2987 181.439 21.144 182.143 21.144C182.66 21.144 183.111 21.224 183.495 21.384C183.884 21.544 184.212 21.76 184.479 22.032C184.751 22.304 184.969 22.616 185.135 22.968C185.3 23.3147 185.42 23.6853 185.495 24.08C185.569 24.4693 185.607 24.8587 185.607 25.248V30H184.423ZM178.175 30V21.36H179.239V23.488H179.359V30H178.175ZM190.987 30.216C190.469 30.216 190.016 30.136 189.627 29.976C189.243 29.816 188.915 29.6 188.643 29.328C188.376 29.056 188.16 28.7467 187.995 28.4C187.829 28.048 187.709 27.6773 187.635 27.288C187.56 26.8933 187.523 26.5013 187.523 26.112V21.36H188.707V25.768C188.707 26.2427 188.752 26.6827 188.843 27.088C188.933 27.4933 189.077 27.848 189.275 28.152C189.477 28.4507 189.736 28.6827 190.051 28.848C190.371 29.0133 190.757 29.096 191.211 29.096C191.627 29.096 191.992 29.024 192.307 28.88C192.627 28.736 192.893 28.5307 193.107 28.264C193.325 27.992 193.491 27.664 193.603 27.28C193.715 26.8907 193.771 26.4533 193.771 25.968L194.602 26.152C194.602 27.0373 194.448 27.7813 194.139 28.384C193.829 28.9867 193.403 29.4427 192.859 29.752C192.315 30.0613 191.691 30.216 190.987 30.216ZM193.891 30V27.872H193.771V21.36H194.947V30H193.891ZM200.839 30.24C199.996 30.24 199.265 30.0533 198.647 29.68C198.033 29.3067 197.556 28.7813 197.215 28.104C196.873 27.4267 196.703 26.632 196.703 25.72C196.703 24.776 196.871 23.96 197.207 23.272C197.543 22.584 198.015 22.0533 198.623 21.68C199.236 21.3067 199.959 21.12 200.791 21.12C201.644 21.12 202.372 21.3173 202.975 21.712C203.577 22.1013 204.033 22.6613 204.343 23.392C204.652 24.1227 204.793 24.9947 204.767 26.008H203.567V25.592C203.545 24.472 203.303 23.6267 202.839 23.056C202.38 22.4853 201.708 22.2 200.823 22.2C199.895 22.2 199.183 22.5013 198.687 23.104C198.196 23.7067 197.951 24.5653 197.951 25.68C197.951 26.768 198.196 27.6133 198.687 28.216C199.183 28.8133 199.884 29.112 200.791 29.112C201.409 29.112 201.948 28.9707 202.407 28.688C202.871 28.4 203.236 27.9867 203.503 27.448L204.599 27.872C204.257 28.624 203.753 29.208 203.087 29.624C202.425 30.0347 201.676 30.24 200.839 30.24ZM197.535 26.008V25.024H204.135V26.008H197.535ZM211.585 30L208.945 21.352L210.121 21.36L212.169 28.072L214.225 21.36H215.297L217.353 28.072L219.417 21.36H220.585L217.945 30H216.921L214.761 23.12L212.609 30H211.585ZM222.186 19.72V18.4H223.362V19.72H222.186ZM222.186 30V21.36H223.362V30H222.186ZM230.465 30C229.979 30.1013 229.499 30.1413 229.025 30.12C228.555 30.0987 228.134 29.9973 227.761 29.816C227.393 29.6347 227.113 29.352 226.921 28.968C226.766 28.648 226.681 28.3253 226.665 28C226.654 27.6693 226.649 27.2933 226.649 26.872V18.96H227.817V26.824C227.817 27.1867 227.819 27.4907 227.825 27.736C227.835 27.976 227.891 28.1893 227.993 28.376C228.185 28.7333 228.489 28.9467 228.905 29.016C229.326 29.0853 229.846 29.0693 230.465 28.968V30ZM224.801 22.368V21.36H230.465V22.368H224.801ZM238.407 30V25.592C238.407 25.112 238.362 24.672 238.271 24.272C238.18 23.8667 238.034 23.5147 237.831 23.216C237.634 22.912 237.375 22.6773 237.055 22.512C236.74 22.3467 236.356 22.264 235.903 22.264C235.487 22.264 235.119 22.336 234.799 22.48C234.484 22.624 234.218 22.832 233.999 23.104C233.786 23.3707 233.623 23.696 233.511 24.08C233.399 24.464 233.343 24.9013 233.343 25.392L232.511 25.208C232.511 24.3227 232.666 23.5787 232.975 22.976C233.284 22.3733 233.711 21.9173 234.255 21.608C234.799 21.2987 235.423 21.144 236.127 21.144C236.644 21.144 237.095 21.224 237.479 21.384C237.868 21.544 238.196 21.76 238.463 22.032C238.735 22.304 238.954 22.616 239.119 22.968C239.284 23.3147 239.404 23.6853 239.479 24.08C239.554 24.4693 239.591 24.8587 239.591 25.248V30H238.407ZM232.159 30V18.48H233.223V24.984H233.343V30H232.159ZM248.302 34.08C247.859 34.08 247.422 34.0133 246.99 33.88C246.563 33.752 246.169 33.5467 245.806 33.264C245.443 32.9867 245.139 32.624 244.894 32.176L245.958 31.584C246.198 32.064 246.534 32.408 246.966 32.616C247.403 32.8293 247.849 32.936 248.302 32.936C248.926 32.936 249.43 32.8187 249.814 32.584C250.203 32.3547 250.486 32.0133 250.662 31.56C250.838 31.1067 250.923 30.5413 250.918 29.864V27.56H251.054V21.36H252.102V29.88C252.102 30.1253 252.094 30.36 252.078 30.584C252.067 30.8133 252.043 31.0373 252.006 31.256C251.905 31.9013 251.694 32.432 251.374 32.848C251.059 33.264 250.643 33.5733 250.126 33.776C249.614 33.9787 249.006 34.08 248.302 34.08ZM248.222 30.24C247.417 30.24 246.729 30.04 246.158 29.64C245.587 29.2347 245.15 28.688 244.846 28C244.542 27.312 244.39 26.536 244.39 25.672C244.39 24.8133 244.539 24.04 244.838 23.352C245.142 22.664 245.577 22.12 246.142 21.72C246.707 21.32 247.385 21.12 248.174 21.12C248.985 21.12 249.667 21.3173 250.222 21.712C250.777 22.1067 251.195 22.648 251.478 23.336C251.766 24.0187 251.91 24.7973 251.91 25.672C251.91 26.5307 251.769 27.3067 251.486 28C251.203 28.688 250.787 29.2347 250.238 29.64C249.689 30.04 249.017 30.24 248.222 30.24ZM248.342 29.144C248.955 29.144 249.462 28.9947 249.862 28.696C250.262 28.3973 250.561 27.9867 250.758 27.464C250.955 26.936 251.054 26.3387 251.054 25.672C251.054 24.9947 250.955 24.3973 250.758 23.88C250.561 23.3573 250.262 22.9493 249.862 22.656C249.467 22.3627 248.969 22.216 248.366 22.216C247.747 22.216 247.235 22.368 246.83 22.672C246.425 22.976 246.123 23.3893 245.926 23.912C245.734 24.4347 245.638 25.0213 245.638 25.672C245.638 26.328 245.737 26.92 245.934 27.448C246.137 27.9707 246.438 28.384 246.838 28.688C247.238 28.992 247.739 29.144 248.342 29.144ZM257.947 30.24C257.088 30.24 256.355 30.0453 255.747 29.656C255.139 29.2667 254.672 28.728 254.347 28.04C254.021 27.352 253.859 26.5627 253.859 25.672C253.859 24.7653 254.024 23.9707 254.355 23.288C254.685 22.6053 255.155 22.0747 255.763 21.696C256.376 21.312 257.104 21.12 257.947 21.12C258.811 21.12 259.547 21.3147 260.155 21.704C260.768 22.088 261.235 22.624 261.555 23.312C261.88 23.9947 262.043 24.7813 262.043 25.672C262.043 26.5787 261.88 27.376 261.555 28.064C261.229 28.7467 260.76 29.28 260.147 29.664C259.533 30.048 258.8 30.24 257.947 30.24ZM257.947 29.112C258.907 29.112 259.621 28.7947 260.091 28.16C260.56 27.52 260.795 26.6907 260.795 25.672C260.795 24.6267 260.557 23.7947 260.083 23.176C259.613 22.5573 258.901 22.248 257.947 22.248C257.301 22.248 256.768 22.3947 256.347 22.688C255.931 22.976 255.619 23.3787 255.411 23.896C255.208 24.408 255.107 25 255.107 25.672C255.107 26.712 255.347 27.5467 255.827 28.176C256.307 28.8 257.013 29.112 257.947 29.112ZM267.416 30.24C266.557 30.24 265.824 30.0453 265.216 29.656C264.608 29.2667 264.141 28.728 263.816 28.04C263.49 27.352 263.328 26.5627 263.328 25.672C263.328 24.7653 263.493 23.9707 263.824 23.288C264.154 22.6053 264.624 22.0747 265.232 21.696C265.845 21.312 266.573 21.12 267.416 21.12C268.28 21.12 269.016 21.3147 269.624 21.704C270.237 22.088 270.704 22.624 271.024 23.312C271.349 23.9947 271.512 24.7813 271.512 25.672C271.512 26.5787 271.349 27.376 271.024 28.064C270.698 28.7467 270.229 29.28 269.616 29.664C269.002 30.048 268.269 30.24 267.416 30.24ZM267.416 29.112C268.376 29.112 269.09 28.7947 269.56 28.16C270.029 27.52 270.264 26.6907 270.264 25.672C270.264 24.6267 270.026 23.7947 269.552 23.176C269.082 22.5573 268.37 22.248 267.416 22.248C266.77 22.248 266.237 22.3947 265.816 22.688C265.4 22.976 265.088 23.3787 264.88 23.896C264.677 24.408 264.576 25 264.576 25.672C264.576 26.712 264.816 27.5467 265.296 28.176C265.776 28.8 266.482 29.112 267.416 29.112ZM276.708 34.08C276.266 34.08 275.828 34.0133 275.396 33.88C274.97 33.752 274.575 33.5467 274.212 33.264C273.85 32.9867 273.546 32.624 273.3 32.176L274.364 31.584C274.604 32.064 274.94 32.408 275.372 32.616C275.81 32.8293 276.255 32.936 276.708 32.936C277.332 32.936 277.836 32.8187 278.22 32.584C278.61 32.3547 278.892 32.0133 279.068 31.56C279.244 31.1067 279.33 30.5413 279.324 29.864V27.56H279.46V21.36H280.508V29.88C280.508 30.1253 280.5 30.36 280.484 30.584C280.474 30.8133 280.45 31.0373 280.412 31.256C280.311 31.9013 280.1 32.432 279.78 32.848C279.466 33.264 279.05 33.5733 278.532 33.776C278.02 33.9787 277.412 34.08 276.708 34.08ZM276.628 30.24C275.823 30.24 275.135 30.04 274.564 29.64C273.994 29.2347 273.556 28.688 273.252 28C272.948 27.312 272.796 26.536 272.796 25.672C272.796 24.8133 272.946 24.04 273.244 23.352C273.548 22.664 273.983 22.12 274.548 21.72C275.114 21.32 275.791 21.12 276.58 21.12C277.391 21.12 278.074 21.3173 278.628 21.712C279.183 22.1067 279.602 22.648 279.884 23.336C280.172 24.0187 280.316 24.7973 280.316 25.672C280.316 26.5307 280.175 27.3067 279.892 28C279.61 28.688 279.194 29.2347 278.644 29.64C278.095 30.04 277.423 30.24 276.628 30.24ZM276.748 29.144C277.362 29.144 277.868 28.9947 278.268 28.696C278.668 28.3973 278.967 27.9867 279.164 27.464C279.362 26.936 279.46 26.3387 279.46 25.672C279.46 24.9947 279.362 24.3973 279.164 23.88C278.967 23.3573 278.668 22.9493 278.268 22.656C277.874 22.3627 277.375 22.216 276.772 22.216C276.154 22.216 275.642 22.368 275.236 22.672C274.831 22.976 274.53 23.3893 274.332 23.912C274.14 24.4347 274.044 25.0213 274.044 25.672C274.044 26.328 274.143 26.92 274.34 27.448C274.543 27.9707 274.844 28.384 275.244 28.688C275.644 28.992 276.146 29.144 276.748 29.144ZM282.905 30V18.24H284.081V30H282.905ZM290.135 30.24C289.293 30.24 288.562 30.0533 287.943 29.68C287.33 29.3067 286.853 28.7813 286.511 28.104C286.17 27.4267 285.999 26.632 285.999 25.72C285.999 24.776 286.167 23.96 286.503 23.272C286.839 22.584 287.311 22.0533 287.919 21.68C288.533 21.3067 289.255 21.12 290.087 21.12C290.941 21.12 291.669 21.3173 292.271 21.712C292.874 22.1013 293.33 22.6613 293.639 23.392C293.949 24.1227 294.09 24.9947 294.063 26.008H292.863V25.592C292.842 24.472 292.599 23.6267 292.135 23.056C291.677 22.4853 291.005 22.2 290.119 22.2C289.191 22.2 288.479 22.5013 287.983 23.104C287.493 23.7067 287.247 24.5653 287.247 25.68C287.247 26.768 287.493 27.6133 287.983 28.216C288.479 28.8133 289.181 29.112 290.087 29.112C290.706 29.112 291.245 28.9707 291.703 28.688C292.167 28.4 292.533 27.9867 292.799 27.448L293.895 27.872C293.554 28.624 293.05 29.208 292.383 29.624C291.722 30.0347 290.973 30.24 290.135 30.24ZM286.831 26.008V25.024H293.431V26.008H286.831Z" fill="#141A1F"/>
</svg>
