<svg width="15" height="14" viewBox="0 0 15 14" fill="none" xmlns="http://www.w3.org/2000/svg">
<path d="M3.15454 12.9057C3.18104 12.5862 3.26056 12.2118 3.32241 11.8284C3.47261 10.9337 3.61397 10.039 3.773 9.15344C3.79067 9.02563 3.7465 8.95259 3.66698 8.87042C2.8188 8.02137 1.97946 7.17232 1.13128 6.31415C0.901562 6.08591 0.795539 5.80289 0.83088 5.48336C0.892726 4.9721 1.21079 4.64344 1.7144 4.5704C2.86298 4.39694 4.02039 4.22348 5.16896 4.05914C5.31033 4.04089 5.38984 3.96785 5.45169 3.84004C5.97297 2.75362 6.48541 1.65807 7.01552 0.571653C7.28058 0.0330087 7.89021 -0.158712 8.39381 0.142563C8.58819 0.261248 8.71188 0.434709 8.80907 0.644689C9.31267 1.70372 9.82512 2.76275 10.3199 3.82178C10.3906 3.97698 10.4878 4.04089 10.6556 4.06827C11.8042 4.23261 12.9439 4.40607 14.0925 4.57953C14.4989 4.64344 14.7905 4.87168 14.9054 5.28251C15.0202 5.68421 14.9319 6.04939 14.6315 6.34153C13.7921 7.18145 12.9616 8.02137 12.1311 8.85216C12.0251 8.96172 11.9897 9.06214 12.0162 9.21735C12.2195 10.3951 12.4138 11.5728 12.6082 12.7505C12.7142 13.3896 12.3608 13.8917 11.7424 13.9921C11.5568 14.0195 11.3801 13.9738 11.2122 13.8826C10.1697 13.3165 9.12713 12.7596 8.09342 12.1845C7.95205 12.1023 7.84603 12.0932 7.69583 12.1845C6.67095 12.7505 5.63723 13.2983 4.60351 13.8643C4.35613 14.0012 4.09991 14.0378 3.82601 13.9465C3.41076 13.8095 3.1457 13.4352 3.1457 12.9148L3.15454 12.9057Z" fill="#AEAEAE"/>
</svg>
