<svg width="14" height="15" viewBox="0 0 14 15" fill="none" xmlns="http://www.w3.org/2000/svg">
<path d="M2.30894 13.4057C2.3352 13.0862 2.41399 12.7118 2.47527 12.3284C2.62409 11.4337 2.76416 10.539 2.92173 9.65344C2.93924 9.52563 2.89547 9.45259 2.81668 9.37042C1.97628 8.52137 1.14464 7.67232 0.304241 6.81415C0.0766334 6.58591 -0.0284164 6.30289 0.00660021 5.98336C0.0678792 5.4721 0.383028 5.14344 0.882015 5.0704C2.02005 4.89694 3.16685 4.72348 4.30489 4.55914C4.44495 4.54089 4.52374 4.46785 4.58502 4.34004C5.10151 3.25362 5.60925 2.15807 6.1345 1.07165C6.39713 0.533009 7.00116 0.341288 7.50015 0.642563C7.69274 0.761248 7.8153 0.934709 7.91159 1.14469C8.41058 2.20372 8.91832 3.26275 9.40855 4.32178C9.47859 4.47698 9.57488 4.54089 9.74121 4.56827C10.8792 4.73261 12.0085 4.90607 13.1466 5.07953C13.5493 5.14344 13.8381 5.37168 13.952 5.78251C14.0658 6.18421 13.9782 6.54939 13.6806 6.84153C12.8489 7.68145 12.026 8.52137 11.2032 9.35216C11.0981 9.46172 11.0631 9.56214 11.0893 9.71735C11.2907 10.8951 11.4833 12.0728 11.6759 13.2505C11.7809 13.8896 11.4308 14.3917 10.818 14.4921C10.6341 14.5195 10.459 14.4738 10.2927 14.3826C9.25973 13.8165 8.22674 13.2596 7.20251 12.6845C7.06244 12.6023 6.95739 12.5932 6.80857 12.6845C5.79309 13.2505 4.76886 13.7983 3.74462 14.3643C3.4995 14.5012 3.24563 14.5378 2.97426 14.4465C2.56281 14.3095 2.30019 13.9352 2.30019 13.4148L2.30894 13.4057Z" fill="#F4CD32"/>
</svg>
